<svg xmlns="http://www.w3.org/2000/svg" width="640" height="320" viewBox="0 0 640 320" role="img" aria-label="Feature tax — metrics and dnstap combined (forward_fast)">
<rect width="100%" height="100%" fill="#fafafa"/>
<text x="320" y="24" text-anchor="middle" font-family="sans-serif" font-size="14" fill="#212121">Feature tax — metrics and dnstap combined (forward_fast)</text>
<text x="12" y="152" text-anchor="middle" font-family="sans-serif" font-size="11" fill="#616161" transform="rotate(-90 12 152)">QPS</text>
<line x1="56" y1="40" x2="56" y2="264" stroke="#9e9e9e"/>
<line x1="56" y1="264" x2="616" y2="264" stroke="#9e9e9e"/>
<line x1="56" y1="264.0" x2="616" y2="264.0" stroke="#eeeeee"/>
<text x="50" y="268.0" text-anchor="end" font-family="sans-serif" font-size="10" fill="#757575">0</text>
<line x1="56" y1="152.0" x2="616" y2="152.0" stroke="#eeeeee"/>
<text x="50" y="156.0" text-anchor="end" font-family="sans-serif" font-size="10" fill="#757575">37970</text>
<line x1="56" y1="40.0" x2="616" y2="40.0" stroke="#eeeeee"/>
<text x="50" y="44.0" text-anchor="end" font-family="sans-serif" font-size="10" fill="#757575">75941</text>
<rect x="91.0" y="40.0" width="59.5" height="224.0" fill="#3949ab"><title>QPS / metrics_off: 75940.65</title></rect>
<text x="126.0" y="282" text-anchor="middle" font-family="sans-serif" font-size="11" fill="#424242">metrics_off</text>
<rect x="231.0" y="57.4" width="59.5" height="206.6" fill="#3949ab"><title>QPS / standard_scrape: 70029.86</title></rect>
<text x="266.0" y="282" text-anchor="middle" font-family="sans-serif" font-size="11" fill="#424242">standard_scrape</text>
<rect x="371.0" y="60.6" width="59.5" height="203.4" fill="#3949ab"><title>QPS / dnstap_full: 68939.90</title></rect>
<text x="406.0" y="282" text-anchor="middle" font-family="sans-serif" font-size="11" fill="#424242">dnstap_full</text>
<rect x="511.0" y="74.2" width="59.5" height="189.8" fill="#3949ab"><title>QPS / standard_dnstap_full: 64339.36</title></rect>
<text x="546.0" y="282" text-anchor="middle" font-family="sans-serif" font-size="11" fill="#424242">standard_dnstap_full</text>
<rect x="56" y="298" width="12" height="12" fill="#3949ab"/>
<text x="72" y="308" font-family="sans-serif" font-size="11" fill="#424242">QPS</text>
</svg>
