<svg xmlns="http://www.w3.org/2000/svg" width="640" height="320" viewBox="0 0 640 320" role="img" aria-label="Achieved QPS — sync ingress-8 high-churn (memory vs LMDB sync modes)">
<rect width="100%" height="100%" fill="#fafafa"/>
<text x="320" y="24" text-anchor="middle" font-family="sans-serif" font-size="14" fill="#212121">Achieved QPS — sync ingress-8 high-churn (memory vs LMDB sync modes)</text>
<text x="12" y="152" text-anchor="middle" font-family="sans-serif" font-size="11" fill="#616161" transform="rotate(-90 12 152)">Achieved QPS</text>
<line x1="56" y1="40" x2="56" y2="264" stroke="#9e9e9e"/>
<line x1="56" y1="264" x2="616" y2="264" stroke="#9e9e9e"/>
<line x1="56" y1="264.0" x2="616" y2="264.0" stroke="#eeeeee"/>
<text x="50" y="268.0" text-anchor="end" font-family="sans-serif" font-size="10" fill="#757575">0</text>
<line x1="56" y1="152.0" x2="616" y2="152.0" stroke="#eeeeee"/>
<text x="50" y="156.0" text-anchor="end" font-family="sans-serif" font-size="10" fill="#757575">134170</text>
<line x1="56" y1="40.0" x2="616" y2="40.0" stroke="#eeeeee"/>
<text x="50" y="44.0" text-anchor="end" font-family="sans-serif" font-size="10" fill="#757575">268341</text>
<rect x="91.0" y="40.0" width="59.5" height="224.0" fill="#3949ab"><title>achieved_qps / memory: 268340.71</title></rect>
<text x="126.0" y="282" text-anchor="middle" font-family="sans-serif" font-size="11" fill="#424242">memory</text>
<rect x="231.0" y="261.5" width="59.5" height="2.5" fill="#3949ab"><title>achieved_qps / full: 2956.96</title></rect>
<text x="266.0" y="282" text-anchor="middle" font-family="sans-serif" font-size="11" fill="#424242">full</text>
<rect x="371.0" y="260.2" width="59.5" height="3.8" fill="#3949ab"><title>achieved_qps / no_meta: 4576.21</title></rect>
<text x="406.0" y="282" text-anchor="middle" font-family="sans-serif" font-size="11" fill="#424242">no_meta</text>
<rect x="511.0" y="130.3" width="59.5" height="133.7" fill="#3949ab"><title>achieved_qps / none: 160198.12</title></rect>
<text x="546.0" y="282" text-anchor="middle" font-family="sans-serif" font-size="11" fill="#424242">none</text>
<rect x="56" y="298" width="12" height="12" fill="#3949ab"/>
<text x="72" y="308" font-family="sans-serif" font-size="11" fill="#424242">achieved_qps</text>
</svg>
